<svg width="72" height="80" viewBox="0 0 72 80" fill="none" xmlns="http://www.w3.org/2000/svg">
<path d="M12.7644 34.8457C15.0236 46.6205 30.4267 59.4907 45.0083 52.1656C43.1599 52.9187 41.1062 53.261 38.984 53.1241C32.412 52.7133 27.0722 47.3736 26.6615 40.7331C26.1823 32.9973 32.2751 26.5622 39.9424 26.5622C43.2969 26.5622 46.3775 27.7945 48.7051 29.8482C52.2649 32.9973 57.1254 34.0926 61.6437 32.5866L62.1914 32.3812C71.6386 29.2321 74.24 17.0465 66.8465 10.3376C60.1376 4.31326 51.3065 0.479598 41.6539 0.0688477C15.3659 2.60181 10.2999 22.1124 12.7644 34.8457Z" fill="#6098F4"/>
<path d="M0.0312903 38.3367C-0.858668 61.0648 17.3512 79.754 39.874 79.754C50.2112 79.754 59.59 75.8518 66.7097 69.4168C74.1032 62.7078 71.4333 50.3853 61.9176 47.2363C57.3994 45.7302 52.3335 46.6201 48.7052 49.8377C47.6098 50.7961 46.3091 51.6176 44.94 52.2337C30.3583 59.5588 14.9552 46.6886 12.6961 34.9138C10.3 22.112 15.366 2.60142 41.654 0.0684583C41.1063 0 40.4902 0 39.874 0C18.5835 0 0.85279 17.0461 0.0312903 38.3367Z" fill="url(#paint0_linear_9_5137)"/>
<defs>
<linearGradient id="paint0_linear_9_5137" x1="8.04119" y1="15.4124" x2="64.3917" y2="71.7629" gradientUnits="userSpaceOnUse">
<stop stop-color="#1DFBD3"/>
<stop offset="1" stop-color="#6098F4"/>
</linearGradient>
</defs>
</svg>
