<svg width="8" height="8" viewBox="0 0 8 8" fill="none" xmlns="http://www.w3.org/2000/svg">
<path fill-rule="evenodd" clip-rule="evenodd" d="M4 0C4.36819 0 4.66667 0.298477 4.66667 0.666667V3.33333H7.33333C7.70152 3.33333 8 3.63181 8 4C8 4.36819 7.70152 4.66667 7.33333 4.66667H4.66667V7.33333C4.66667 7.70152 4.36819 8 4 8C3.63181 8 3.33333 7.70152 3.33333 7.33333V4.66667H0.666667C0.298477 4.66667 0 4.36819 0 4C0 3.63181 0.298477 3.33333 0.666667 3.33333H3.33333V0.666667C3.33333 0.298477 3.63181 0 4 0Z" fill="#1DFBD3"/>
</svg>
